# File created by Blade
# Date/Time:  Tue Sep 30 19:36:50 2014
#---------------------------------------------------------
:version 1.10
:name HOM
:units
  mass 1.0
  length 1.000000
  angle deg
:documentation
     Acclaim Skeleton File
:root
   axis xyz
   order TX TY TZ RX RY RZ
   position 0.000000 0.000000 0.000000
   orientation 0 0 0
:bonedata
   begin
      id 1
      name Spine_dum
      direction 0.000000 1.000000 0.000000
      length 3.241213
      axis 0.0 0.0 0.0 xyz
   end
   begin
      id 2
      name LeftUpLeg_dum
      direction 1.000000 0.000000 0.000000
      length 3.434019
      axis 0.0 0.0 0.0 xyz
   end
   begin
      id 3
      name RightUpLeg_dum
      direction -1.000000 0.000000 0.000000
      length 3.434019
      axis 0.0 0.0 0.0 xyz
   end
   begin
      id 4
      name Spine
      direction 0.000000 1.000000 0.000000
      length 0.000000
      axis 0.0 0.0 0.0 xyz
      dof rx ry rz
   end
   begin
      id 5
      name Spine_dum1
      direction 0.000000 1.000000 0.000000
      length 18.382958
      axis 0.0 0.0 0.0 xyz
   end
   begin
      id 6
      name Spine_dum2
      direction 0.000000 1.000000 0.000000
      length 12.828261
      axis 0.0 0.0 0.0 xyz
   end
   begin
      id 7
      name Spine_dum3
      direction 0.000000 1.000000 0.000000
      length 12.828261
      axis 0.0 0.0 0.0 xyz
   end
   begin
      id 8
      name Head
      direction 0.000000 1.000000 0.000000
      length 4.527550
      axis 0.0 0.0 0.0 xyz
      dof rx ry rz
   end
   begin
      id 9
      name LeftShoulder
      direction 1.000000 0.000000 0.000000
      length 7.748055
      axis 0.0 0.0 -90.0 xyz
      dof rx ry rz
   end
   begin
      id 10
      name LeftArm
      direction 1.000000 0.000000 0.000000
      length 10.635614
      axis 0.0 0.0 -90.0 xyz
      dof rx ry rz
   end
   begin
      id 11
      name LeftForeArm
      direction 1.000000 0.000000 0.000000
      length 8.346755
      axis 0.0 0.0 -90.0 xyz
      dof ry rz rx
   end
   begin
      id 12
      name LeftHand
      direction 0.000000 0.000000 0.000000
      length 0.000000
      axis 0.0 0.0 -90.0 xyz
      dof rx ry rz
   end
   begin
      id 13
      name LeftHand_dum1
      direction 0.000000 0.000000 0.000000
      length 0.000000
      axis 0.0 0.0 -90.0 xyz
   end
   begin
      id 14
      name LeftHand_dum2
      direction 1.000000 0.000000 0.000000
      length 3.937000
      axis 0.0 0.0 -90.0 xyz
   end
   begin
      id 15
      name LeftHandThumb1
      direction 0.000000 0.000000 1.000000
      length 3.937000
      axis 0.0 0.0 -90.0 xyz
      dof rx rz ry
   end
   begin
      id 16
      name RightShoulder
      direction -1.000000 0.000000 0.000000
      length 7.748055
      axis 0.0 0.0 90.0 xyz
      dof rx ry rz
   end
   begin
      id 17
      name RightArm
      direction -1.000000 0.000000 0.000000
      length 10.635614
      axis 0.0 0.0 90.0 xyz
      dof rx ry rz
   end
   begin
      id 18
      name RightForeArm
      direction -1.000000 0.000000 0.000000
      length 8.346755
      axis 0.0 0.0 90.0 xyz
      dof ry rz rx
   end
   begin
      id 19
      name RightHand
      direction 0.000000 0.000000 0.000000
      length 0.000000
      axis 0.0 0.0 90.0 xyz
      dof rx ry rz
   end
   begin
      id 20
      name RightHand_dum1
      direction 0.000000 0.000000 0.000000
      length 0.000000
      axis 0.0 0.0 90.0 xyz
   end
   begin
      id 21
      name RightHand_dum2
      direction -1.000000 0.000000 0.000000
      length 3.937000
      axis 0.0 0.0 90.0 xyz
   end
   begin
      id 22
      name RightHandThumb1
      direction 0.000000 0.000000 1.000000
      length 3.937000
      axis 0.0 0.0 90.0 xyz
      dof rx rz ry
   end
   begin
      id 23
      name LeftUpLeg
      direction 0.000000 -1.000000 0.000000
      length 15.713025
      axis 0.0 0.0 0.0 xyz
      dof rx ry rz
   end
   begin
      id 24
      name LeftLeg
      direction 0.000000 -1.000000 0.000000
      length 14.435119
      axis 0.0 0.0 0.0 xyz
      dof rx ry rz
   end
   begin
      id 25
      name LeftFoot
      direction 0.000000 -0.258819 0.965926
      length 4.938895
      axis 15.0 0.0 0.0 xyz
      dof rx ry rz
   end
   begin
      id 26
      name LeftToeBase
      direction 0.000000 0.000000 1.000000
      length 2.952750
      axis 0.0 0.0 0.0 xyz
      dof rx ry rz
   end
   begin
      id 27
      name RightUpLeg
      direction 0.000000 -1.000000 0.000000
      length 15.713025
      axis 0.0 0.0 0.0 xyz
      dof rx ry rz
   end
   begin
      id 28
      name RightLeg
      direction 0.000000 -1.000000 0.000000
      length 14.435119
      axis 0.0 0.0 0.0 xyz
      dof rx ry rz
   end
   begin
      id 29
      name RightFoot
      direction 0.000000 -0.258819 0.965926
      length 4.938895
      axis 15.0 0.0 0.0 xyz
      dof rx ry rz
   end
   begin
      id 30
      name RightToeBase
      direction 0.000000 0.000000 1.000000
      length 2.952750
      axis 0.0 0.0 0.0 xyz
      dof rx ry rz
   end
:hierarchy
   begin
      root Spine_dum LeftUpLeg_dum RightUpLeg_dum
      Spine_dum Spine
      LeftUpLeg_dum LeftUpLeg
      RightUpLeg_dum RightUpLeg
      Spine Spine_dum1 Spine_dum2 Spine_dum3
      Spine_dum1 Head
      Spine_dum2 LeftShoulder
      Spine_dum3 RightShoulder
      LeftShoulder LeftArm
      LeftArm LeftForeArm
      LeftForeArm LeftHand
      LeftHand LeftHand_dum1 LeftHand_dum2
      LeftHand_dum1 LeftHandThumb1
      RightShoulder RightArm
      RightArm RightForeArm
      RightForeArm RightHand
      RightHand RightHand_dum1 RightHand_dum2
      RightHand_dum1 RightHandThumb1
      LeftUpLeg LeftLeg
      LeftLeg LeftFoot
      LeftFoot LeftToeBase
      RightUpLeg RightLeg
      RightLeg RightFoot
      RightFoot RightToeBase
   end

# File created by Blade
# Date/Time:  Tue Sep 23 19:06:47 2014
# Frame Rate: 120.000 fps
#------------------------------------------------------
:FULLY-SPECIFIED
:DEGREES
523
root 1.986243 34.723652 -6.358906 52.951045 -10.243750 -47.972552
Spine -44.683868 30.153309 10.784078
Head -0.452955 -2.787880 21.067344
LeftShoulder -18.334659 17.079406 40.047557
LeftArm 51.213816 -79.008160 -3.149908
LeftForeArm 97.877089 -0.000000 9.762802
LeftHand -17.772118 0.000000 63.583091
LeftHandThumb1 -26.253704 0.000000 33.147579
RightShoulder -9.953513 -6.754553 -19.279567
RightArm 114.881339 39.448312 150.309256
RightForeArm 48.650703 -0.000000 64.058113
RightHand -0.381374 -0.000000 24.298424
RightHandThumb1 -24.326973 -0.000000 -32.862282
LeftUpLeg -40.222744 31.161657 31.435531
LeftLeg 16.593906 -0.000000 -0.000000
LeftFoot -5.958585 32.013621 12.486290
LeftToeBase 4.192281 -0.000000 -0.000000
RightUpLeg -182.142667 -37.417937 55.198105
RightLeg -5.741386 -0.000000 0.000000
RightFoot 29.551559 -22.432027 14.035888
RightToeBase 33.372483 -0.000000 -0.000000
524
root 1.996999 34.720186 -6.349613 52.890473 -10.198761 -47.874033
Spine -44.683831 30.123022 10.777046
Head -0.265156 -2.827740 20.943120
LeftShoulder -18.459672 16.734449 40.104998
LeftArm 52.673408 -78.563284 -4.697067
LeftForeArm 98.032012 -0.000000 9.710526
LeftHand -17.883120 -0.000000 63.487166
LeftHandThumb1 -26.253704 0.000000 33.147579
RightShoulder -9.972672 -6.824159 -19.244537
RightArm 114.912059 39.425923 150.314211
RightForeArm 48.776113 -0.000000 63.924289
RightHand -0.227363 -0.000000 24.139599
RightHandThumb1 -24.326973 -0.000000 -32.862282
LeftUpLeg -40.177630 30.704810 31.600791
LeftLeg 16.787399 -0.000000 -0.000000
LeftFoot -6.990549 30.737860 11.710709
LeftToeBase 3.660820 -0.000000 -0.000000
RightUpLeg -182.145294 -37.290972 55.244086
RightLeg -5.704800 -0.000000 0.000000
RightFoot 29.514272 -22.394489 14.210607
RightToeBase 33.310696 -0.000000 -0.000000
525
root 2.010084 34.718644 -6.338361 52.833254 -10.140280 -47.780220
Spine -44.691464 30.108907 10.790774
Head -0.061307 -2.923967 20.769544
LeftShoulder -18.444206 16.686858 40.106478
LeftArm 52.738430 -78.406547 -4.986475
LeftForeArm 98.275154 -0.000000 9.764193
LeftHand -17.991637 -0.000000 63.504961
LeftHandThumb1 -26.253704 0.000000 33.147579
RightShoulder -9.972745 -6.928742 -19.232143
RightArm 114.960635 39.384471 150.380998
RightForeArm 48.915431 -0.000000 63.818689
RightHand -0.150522 -0.000000 24.092971
RightHandThumb1 -24.326973 -0.000000 -32.862282
LeftUpLeg -40.079570 30.063872 31.905960
LeftLeg 17.009262 -0.000000 -0.000000
LeftFoot -8.212128 29.154148 10.787486
LeftToeBase 3.481485 -0.000000 -0.000000
RightUpLeg -182.125398 -37.178696 55.276056
RightLeg -5.679144 -0.000000 0.000000
RightFoot 29.310579 -22.607025 14.458171
RightToeBase 33.456932 -0.000000 -0.000000
526
root 2.028258 34.714204 -6.321949 52.752163 -10.130986 -47.664905
Spine -44.679386 30.113885 10.792220
Head 0.175745 -2.991044 20.555961
LeftShoulder -18.406115 16.783788 40.040980
LeftArm 52.690825 -78.404498 -5.190334
LeftForeArm 97.983076 -0.000000 9.925736
LeftHand -17.500112 -0.000000 63.294657
LeftHandThumb1 -26.253704 0.000000 33.147579
RightShoulder -9.935291 -7.046901 -19.268172
RightArm 115.026377 39.387843 150.494252
RightForeArm 49.359589 -0.000000 63.667227
RightHand -0.202508 0.000000 24.215858
RightHandThumb1 -24.326973 -0.000000 -32.862282
LeftUpLeg -39.914339 29.272184 32.258576
LeftLeg 17.249234 -0.000000 -0.000000
LeftFoot -9.274134 27.417136 9.987840
LeftToeBase 3.267485 -0.000000 -0.000000
RightUpLeg -182.056760 -37.052163 55.236075
RightLeg -5.690268 -0.000000 0.000000
RightFoot 29.308178 -22.728400 14.519992
RightToeBase 33.458923 -0.000000 -0.000000
527
root 2.050183 34.707509 -6.307431 52.676379 -10.087087 -47.538296
Spine -44.679709 30.134431 10.788552
Head 0.358875 -3.089292 20.333450
LeftShoulder -18.354313 16.818668 40.053790
LeftArm 52.510459 -78.269616 -5.317206
LeftForeArm 98.116240 -0.000000 10.002294
LeftHand -17.677372 -0.000000 63.362103
LeftHandThumb1 -26.253704 0.000000 33.147579
RightShoulder -9.907099 -7.138691 -19.351042
RightArm 115.102148 39.400885 150.674520
RightForeArm 49.413165 -0.000000 63.612530
RightHand -0.160487 -0.000000 24.227895
RightHandThumb1 -24.326973 -0.000000 -32.862282
LeftUpLeg -39.759046 28.261166 32.742654
LeftLeg 17.561267 -0.000000 -0.000000
LeftFoot -10.097778 26.036075 9.410861
LeftToeBase 2.729332 -0.000000 -0.000000
RightUpLeg -182.025386 -36.980667 55.247325
RightLeg -5.681322 -0.000000 0.000000
RightFoot 29.362867 -22.739224 14.554905
RightToeBase 33.362890 -0.000000 -0.000000
